<?xml version="1.0" encoding="UTF-8"?>
<svg version="1.1" xmlns="http://www.w3.org/2000/svg" width="512" height="512">
<path d="M0 0 C16.03865337 13.07730673 16.03865337 13.07730673 20 21 C24.36857413 19.65582335 28.43376957 17.94466849 32.55859375 16 C45.96058973 10.51054245 62.39844299 11.2283218 75.79296875 16.44140625 C80.63856285 18.79632957 84.82073695 21.61866808 89 25 C90.03125 25.7425 91.0625 26.485 92.125 27.25 C101.43417303 36.15442638 108.09170743 47.98113988 109 61 C109.57105469 61.02578125 110.14210938 61.0515625 110.73046875 61.078125 C130.60006708 62.46804921 148.30078576 72.53465763 161.8125 86.8125 C176.38719737 103.92774095 183.79370483 125.56640395 182 148 C179.43285087 170.08852399 169.66352919 189.22395798 152.75390625 203.8359375 C136.8579711 216.32721137 119.72036113 221.35516293 99.77734375 221.1953125 C98.42257396 221.19157439 97.06780143 221.1887312 95.71302795 221.18673706 C92.17685252 221.17916332 88.64084586 221.15957004 85.10473633 221.1373291 C81.48456139 221.11673444 77.86435791 221.10759623 74.24414062 221.09765625 C67.16261219 221.07738276 60.081545 221.03822123 53 221 C53 231.56 53 242.12 53 253 C74.12 253 95.24 253 117 253 C117 258.28 117 263.56 117 269 C95.55 269 74.1 269 52 269 C51.34 272.96 50.68 276.92 50 281 C46.81242802 293.55927237 41.82224322 305.44680582 36 317 C36.64622314 316.98445572 37.29244629 316.96891144 37.95825195 316.95289612 C44.70675461 316.79758484 51.45474676 316.69227104 58.20458984 316.61547852 C60.72075026 316.5803565 63.23676863 316.53264696 65.75244141 316.47192383 C69.3769846 316.38664889 72.99963394 316.34722662 76.625 316.31640625 C77.74302002 316.28027725 78.86104004 316.24414825 80.01293945 316.20692444 C85.6124253 316.20413278 89.15132245 316.5187099 93.47851562 320.25390625 C94.67662673 321.47932403 95.85332806 322.72631934 97 324 C97.84498047 324.80751709 98.68996094 325.61503418 99.56054688 326.44702148 C100.27275391 327.16446533 100.98496094 327.88190918 101.71875 328.62109375 C102.50507813 329.41064453 103.29140625 330.20019531 104.1015625 331.01367188 C104.89304687 331.81353516 105.68453125 332.61339844 106.5 333.4375 C107.32242187 334.26443359 108.14484375 335.09136719 108.9921875 335.94335938 C110.99712113 337.95994959 112.99966253 339.97885236 115 342 C113.30413874 345.63303084 111.26199512 347.94549046 108.375 350.75 C107.55773437 351.54921875 106.74046875 352.3484375 105.8984375 353.171875 C105.27195312 353.77515625 104.64546875 354.3784375 104 355 C100.46116177 353.5445321 98.77835886 351.73276999 96.47705078 348.7121582 C89.04745901 339.67902753 82.71945593 333.11471128 70.66644287 331.92526245 C65.66308834 331.74511376 60.70913286 331.78630026 55.70800781 332.01733398 C51.8407045 332.18902255 47.99570848 332.20192072 44.125 332.19335938 C41.64304628 332.23821613 39.16123334 332.29193411 36.6796875 332.35546875 C34.96856277 332.36745552 34.96856277 332.36745552 33.22286987 332.37968445 C26.69689606 332.74596698 23.4335341 333.88421783 18.98876953 338.7980957 C17.64433879 340.52058242 16.31450729 342.25457022 15 344 C5.81742633 354.21889936 -5.48469405 363.19494457 -18 369 C-19.49076212 374.57655461 -20.10668208 379.56730439 -18 385 C-12.1763713 392.96489185 -4.41623709 399.56057225 3 406 C1.30413874 409.63303084 -0.73800488 411.94549046 -3.625 414.75 C-4.44226563 415.54921875 -5.25953125 416.3484375 -6.1015625 417.171875 C-6.72804688 417.77515625 -7.35453125 418.3784375 -8 419 C-11.83418237 417.41921612 -14.26189306 414.98192672 -17.16796875 412.0625 C-17.64825027 411.58176025 -18.1285318 411.10102051 -18.62336731 410.60571289 C-19.6333707 409.59269849 -20.64095273 408.5772648 -21.64624023 407.55957031 C-23.18746045 406.00004002 -24.73658712 404.4487143 -26.28710938 402.8984375 C-35.03891111 394.10282545 -35.03891111 394.10282545 -35.5625 385.875 C-35.64628906 384.59367187 -35.73007812 383.31234375 -35.81640625 381.9921875 C-35.87699219 381.00476563 -35.93757813 380.01734375 -36 379 C-36.53367187 379.30292969 -37.06734375 379.60585938 -37.6171875 379.91796875 C-40.06862745 381.29637357 -42.53381573 382.64816566 -45 384 C-45.83917969 384.47695313 -46.67835938 384.95390625 -47.54296875 385.4453125 C-52.71856773 388.25377706 -57.08223042 390.40364554 -63 389 C-66.49942035 387.60592197 -69.72841781 385.8594246 -73 384 C-73.87011719 383.52304687 -74.74023438 383.04609375 -75.63671875 382.5546875 C-77.76653488 381.38445886 -79.88663997 380.19961258 -82 379 C-81.99097656 379.9178125 -81.98195312 380.835625 -81.97265625 381.78125 C-82.00230469 383.0084375 -82.03195313 384.235625 -82.0625 385.5 C-82.07990234 387.30984375 -82.07990234 387.30984375 -82.09765625 389.15625 C-83.3571555 394.52138968 -86.16850359 397.1751256 -90 401 C-90.74628662 401.76505859 -91.49257324 402.53011719 -92.26147461 403.31835938 C-94.63434696 405.73223221 -97.03148527 408.11918929 -99.4375 410.5 C-100.26443359 411.32242187 -101.09136719 412.14484375 -101.94335938 412.9921875 C-103.95994959 414.99712113 -105.97885236 416.99966253 -108 419 C-111.63303084 417.30413874 -113.94549046 415.26199512 -116.75 412.375 C-117.94882812 411.14910156 -117.94882812 411.14910156 -119.171875 409.8984375 C-119.77515625 409.27195312 -120.3784375 408.64546875 -121 408 C-119.52025302 404.4410646 -117.55687574 402.50823114 -114.6484375 400.015625 C-103.58990296 390.90924985 -103.58990296 390.90924985 -98.0559082 378.30419922 C-98.06711202 374.81275891 -98.63312744 372.20950739 -100 369 C-102.67065548 366.4387229 -105.15959397 365.13774397 -108.5234375 363.6015625 C-120.95227915 357.87591635 -134.42949383 345.35575926 -142 334 C-144.34416256 333.41752536 -144.34416256 333.41752536 -147.1262207 333.32617188 C-148.20002991 333.25946289 -149.27383911 333.19275391 -150.38018799 333.12402344 C-151.55023376 333.0727832 -152.72027954 333.02154297 -153.92578125 332.96875 C-155.73704498 332.88898926 -155.73704498 332.88898926 -157.5848999 332.80761719 C-161.4941663 332.66596664 -165.40135591 332.57246458 -169.3125 332.5 C-170.62322479 332.47365479 -171.93394958 332.44730957 -173.28439331 332.42016602 C-192.46738505 331.80742377 -192.46738505 331.80742377 -209.05583191 340.07946777 C-213.49411637 344.45548838 -217.08489355 349.50783095 -220 355 C-223.63303084 353.30413874 -225.94549046 351.26199512 -228.75 348.375 C-229.54921875 347.55773437 -230.3484375 346.74046875 -231.171875 345.8984375 C-231.77515625 345.27195312 -232.3784375 344.64546875 -233 344 C-231.41921612 340.16581763 -228.98192672 337.73810694 -226.0625 334.83203125 C-225.58176025 334.35174973 -225.10102051 333.8714682 -224.60571289 333.37663269 C-223.59269849 332.3666293 -222.5772648 331.35904727 -221.55957031 330.35375977 C-220.00004002 328.81253955 -218.4487143 327.26341288 -216.8984375 325.71289062 C-208.01329703 316.87200641 -208.01329703 316.87200641 -201.90771484 316.88647461 C-200.31629166 316.88658791 -200.31629166 316.88658791 -198.69271851 316.88670349 C-197.54373077 316.89186478 -196.39474304 316.89702606 -195.2109375 316.90234375 C-193.45059677 316.90446617 -193.45059677 316.90446617 -191.6546936 316.90663147 C-187.89477015 316.91224311 -184.13490555 316.92479762 -180.375 316.9375 C-177.83073002 316.9425135 -175.28645912 316.94707667 -172.7421875 316.95117188 C-166.49477147 316.96221632 -160.24738994 316.97896582 -154 317 C-154.54487061 315.86272461 -155.08974121 314.72544922 -155.65112305 313.55371094 C-156.37567398 312.03068729 -157.10002875 310.5075703 -157.82421875 308.984375 C-158.18221558 308.23849121 -158.5402124 307.49260742 -158.90905762 306.72412109 C-164.29243456 295.3718826 -170 281.69125456 -170 269 C-191.45 269 -212.9 269 -235 269 C-235 263.72 -235 258.44 -235 253 C-213.88 253 -192.76 253 -171 253 C-171 242.44 -171 231.88 -171 221 C-176.27484375 221.03480469 -181.5496875 221.06960938 -186.984375 221.10546875 C-190.34766748 221.12081684 -193.71091612 221.13526006 -197.07421875 221.14648438 C-202.3999948 221.16434296 -207.72561453 221.18535462 -213.05126953 221.22631836 C-217.35013785 221.25917329 -221.64883828 221.27690747 -225.94782257 221.28463173 C-227.57909026 221.29012875 -229.21034988 221.30086155 -230.8415451 221.31719017 C-250.23373154 221.50339895 -266.62799599 216.92166885 -280.91821289 203.34301758 C-294.72509009 189.46520249 -299.28089192 173.29864339 -299.3190918 154.28076172 C-299.22419949 146.12247249 -298.34648266 139.51587089 -295 132 C-294.63777344 131.12730469 -294.27554687 130.25460938 -293.90234375 129.35546875 C-286.9799626 114.07929883 -274.35962165 103.03063924 -258.99609375 96.77734375 C-252.6917347 94.43524498 -247.5133432 92.8639854 -240.75 92.9375 C-239.67234375 92.94652344 -238.5946875 92.95554687 -237.484375 92.96484375 C-236.66453125 92.97644531 -235.8446875 92.98804687 -235 93 C-234.9484375 92.46375 -234.896875 91.9275 -234.84375 91.375 C-232.78791852 77.17107344 -224.93820692 64.3557608 -213.625 55.8125 C-202.97161086 48.36519153 -192.48343952 44.41568629 -179.375 44.5 C-178.42802246 44.50064453 -177.48104492 44.50128906 -176.50537109 44.50195312 C-167.72323507 44.68556211 -160.10472996 46.74881893 -152 50 C-151.50693359 48.52853516 -151.50693359 48.52853516 -151.00390625 47.02734375 C-145.53987805 31.28999877 -137.85845548 18.70287808 -126 7 C-125.26007813 6.26136719 -124.52015625 5.52273437 -123.7578125 4.76171875 C-90.28192634 -26.81352186 -35.88997392 -27.44226251 0 0 Z M-64.90039062 184.50952148 C-65.6563855 184.84084579 -66.41238037 185.1721701 -67.19128418 185.51353455 C-68.0047229 185.87902908 -68.81816162 186.24452362 -69.65625 186.62109375 C-70.51319458 186.9992775 -71.37013916 187.37746124 -72.25305176 187.7671051 C-75.00513604 188.98370342 -77.75254686 190.21048443 -80.5 191.4375 C-82.28746796 192.22917627 -84.07522585 193.02019826 -85.86328125 193.81054688 C-90.33360519 195.78923572 -94.79862464 197.77954494 -99.26123047 199.77557373 C-102.09626955 201.04303939 -104.93291568 202.30686786 -107.76953125 203.57080078 C-109.60687782 204.39201327 -111.44412122 205.21345665 -113.28125 206.03515625 C-114.57476379 206.61093666 -114.57476379 206.61093666 -115.89440918 207.198349 C-116.68271118 207.55191971 -117.47101318 207.90549042 -118.28320312 208.26977539 C-118.97901489 208.58072647 -119.67482666 208.89167755 -120.39172363 209.21205139 C-122.00060125 209.8926386 -122.00060125 209.8926386 -123 211 C-123.11406599 213.80774874 -123.16421239 216.58980259 -123.16796875 219.3984375 C-123.17129715 220.2619986 -123.17462555 221.12555969 -123.17805481 222.01528931 C-123.1831371 223.85979683 -123.18546274 225.70431361 -123.18530273 227.54882812 C-123.18744243 230.30095007 -123.20544955 233.05263921 -123.22460938 235.8046875 C-123.40624693 258.42159689 -123.40624693 258.42159689 -118.375 280.3125 C-117.9869519 281.40884766 -117.9869519 281.40884766 -117.59106445 282.52734375 C-113.23504859 294.30410258 -106.867985 304.0636683 -98 313 C-97.13375 313.9075 -96.2675 314.815 -95.375 315.75 C-94.199375 316.86375 -94.199375 316.86375 -93 318 C-92.05125 318.9075 -91.1025 319.815 -90.125 320.75 C-84.87294842 325.19933627 -78.8009161 328.50022714 -72.85400391 331.92041016 C-71.15037918 332.91243393 -69.47031908 333.94463852 -67.79296875 334.98046875 C-66.85066406 335.54378906 -65.90835938 336.10710937 -64.9375 336.6875 C-63.71353516 337.43580078 -63.71353516 337.43580078 -62.46484375 338.19921875 C-58.91602856 339.35216188 -57.39794464 338.52237663 -54 337 C-50.85861924 335.38668052 -47.79913292 333.6558669 -44.75 331.875 C-43.90244141 331.38 -43.05488281 330.885 -42.18164062 330.375 C-36.00665399 326.71082653 -30.30071087 322.8689372 -25 318 C-24.10152344 317.19304687 -23.20304687 316.38609375 -22.27734375 315.5546875 C-4.40217089 298.68760555 4.04261057 276.39975346 5 252 C5.14820585 244.89676419 5.09515875 237.79170332 5.0625 230.6875 C5.05747279 228.77148555 5.05291206 226.85546982 5.04882812 224.93945312 C5.03792424 220.29293647 5.02072757 215.64648279 5 211 C-6.42924746 205.07487853 -18.13717625 199.8855881 -29.9375 194.75 C-31.78985826 193.94043521 -33.64207268 193.13054122 -35.49414062 192.3203125 C-41.69021941 189.61013613 -41.69021941 189.61013613 -47.89450073 186.91882324 C-49.26352459 186.32139205 -50.62703461 185.71110548 -51.9836731 185.08605957 C-56.75021693 182.92139762 -60.07489083 182.36730834 -64.90039062 184.50952148 Z " fill="#0b121f" transform="translate(315,35)"/>
<path d="M0 0 C16.03865337 13.07730673 16.03865337 13.07730673 20 21 C24.36857413 19.65582335 28.43376957 17.94466849 32.55859375 16 C45.96058973 10.51054245 62.39844299 11.2283218 75.79296875 16.44140625 C80.63856285 18.79632957 84.82073695 21.61866808 89 25 C90.03125 25.7425 91.0625 26.485 92.125 27.25 C101.43417303 36.15442638 108.09170743 47.98113988 109 61 C109.57105469 61.02578125 110.14210938 61.0515625 110.73046875 61.078125 C130.60006708 62.46804921 148.30078576 72.53465763 161.8125 86.8125 C176.38719737 103.92774095 183.79370483 125.56640395 182 148 C179.43285087 170.08852399 169.66352919 189.22395798 152.75390625 203.8359375 C136.8579711 216.32721137 119.72036113 221.35516293 99.77734375 221.1953125 C98.42257396 221.19157439 97.06780143 221.1887312 95.71302795 221.18673706 C92.17685252 221.17916332 88.64084586 221.15957004 85.10473633 221.1373291 C81.48456139 221.11673444 77.86435791 221.10759623 74.24414062 221.09765625 C67.16261219 221.07738276 60.081545 221.03822123 53 221 C53 231.56 53 242.12 53 253 C74.12 253 95.24 253 117 253 C117 258.28 117 263.56 117 269 C95.55 269 74.1 269 52 269 C51.34 272.96 50.68 276.92 50 281 C46.81242802 293.55927237 41.82224322 305.44680582 36 317 C36.64622314 316.98445572 37.29244629 316.96891144 37.95825195 316.95289612 C44.70675461 316.79758484 51.45474676 316.69227104 58.20458984 316.61547852 C60.72075026 316.5803565 63.23676863 316.53264696 65.75244141 316.47192383 C69.3769846 316.38664889 72.99963394 316.34722662 76.625 316.31640625 C77.74302002 316.28027725 78.86104004 316.24414825 80.01293945 316.20692444 C85.6124253 316.20413278 89.15132245 316.5187099 93.47851562 320.25390625 C94.67662673 321.47932403 95.85332806 322.72631934 97 324 C97.84498047 324.80751709 98.68996094 325.61503418 99.56054688 326.44702148 C100.27275391 327.16446533 100.98496094 327.88190918 101.71875 328.62109375 C102.50507813 329.41064453 103.29140625 330.20019531 104.1015625 331.01367188 C104.89304687 331.81353516 105.68453125 332.61339844 106.5 333.4375 C107.32242187 334.26443359 108.14484375 335.09136719 108.9921875 335.94335938 C110.99712113 337.95994959 112.99966253 339.97885236 115 342 C113.30413874 345.63303084 111.26199512 347.94549046 108.375 350.75 C107.55773437 351.54921875 106.74046875 352.3484375 105.8984375 353.171875 C105.27195312 353.77515625 104.64546875 354.3784375 104 355 C100.46116177 353.5445321 98.77835886 351.73276999 96.47705078 348.7121582 C89.04745901 339.67902753 82.71945593 333.11471128 70.66644287 331.92526245 C65.66308834 331.74511376 60.70913286 331.78630026 55.70800781 332.01733398 C51.8407045 332.18902255 47.99570848 332.20192072 44.125 332.19335938 C41.64304628 332.23821613 39.16123334 332.29193411 36.6796875 332.35546875 C34.96856277 332.36745552 34.96856277 332.36745552 33.22286987 332.37968445 C26.69689606 332.74596698 23.4335341 333.88421783 18.98876953 338.7980957 C17.64433879 340.52058242 16.31450729 342.25457022 15 344 C5.81742633 354.21889936 -5.48469405 363.19494457 -18 369 C-19.49076212 374.57655461 -20.10668208 379.56730439 -18 385 C-12.1763713 392.96489185 -4.41623709 399.56057225 3 406 C1.30413874 409.63303084 -0.73800488 411.94549046 -3.625 414.75 C-4.44226563 415.54921875 -5.25953125 416.3484375 -6.1015625 417.171875 C-6.72804688 417.77515625 -7.35453125 418.3784375 -8 419 C-11.83418237 417.41921612 -14.26189306 414.98192672 -17.16796875 412.0625 C-17.64825027 411.58176025 -18.1285318 411.10102051 -18.62336731 410.60571289 C-19.6333707 409.59269849 -20.64095273 408.5772648 -21.64624023 407.55957031 C-23.18746045 406.00004002 -24.73658712 404.4487143 -26.28710938 402.8984375 C-35.03891111 394.10282545 -35.03891111 394.10282545 -35.5625 385.875 C-35.64628906 384.59367187 -35.73007812 383.31234375 -35.81640625 381.9921875 C-35.87699219 381.00476563 -35.93757813 380.01734375 -36 379 C-36.53367187 379.30292969 -37.06734375 379.60585938 -37.6171875 379.91796875 C-40.06862745 381.29637357 -42.53381573 382.64816566 -45 384 C-45.83917969 384.47695313 -46.67835938 384.95390625 -47.54296875 385.4453125 C-52.71856773 388.25377706 -57.08223042 390.40364554 -63 389 C-66.49942035 387.60592197 -69.72841781 385.8594246 -73 384 C-73.87011719 383.52304687 -74.74023438 383.04609375 -75.63671875 382.5546875 C-77.76653488 381.38445886 -79.88663997 380.19961258 -82 379 C-81.99097656 379.9178125 -81.98195312 380.835625 -81.97265625 381.78125 C-82.00230469 383.0084375 -82.03195313 384.235625 -82.0625 385.5 C-82.07990234 387.30984375 -82.07990234 387.30984375 -82.09765625 389.15625 C-83.3571555 394.52138968 -86.16850359 397.1751256 -90 401 C-90.74628662 401.76505859 -91.49257324 402.53011719 -92.26147461 403.31835938 C-94.63434696 405.73223221 -97.03148527 408.11918929 -99.4375 410.5 C-100.26443359 411.32242187 -101.09136719 412.14484375 -101.94335938 412.9921875 C-103.95994959 414.99712113 -105.97885236 416.99966253 -108 419 C-111.63303084 417.30413874 -113.94549046 415.26199512 -116.75 412.375 C-117.94882812 411.14910156 -117.94882812 411.14910156 -119.171875 409.8984375 C-119.77515625 409.27195312 -120.3784375 408.64546875 -121 408 C-119.52025302 404.4410646 -117.55687574 402.50823114 -114.6484375 400.015625 C-103.58990296 390.90924985 -103.58990296 390.90924985 -98.0559082 378.30419922 C-98.06711202 374.81275891 -98.63312744 372.20950739 -100 369 C-102.67065548 366.4387229 -105.15959397 365.13774397 -108.5234375 363.6015625 C-120.95227915 357.87591635 -134.42949383 345.35575926 -142 334 C-144.34416256 333.41752536 -144.34416256 333.41752536 -147.1262207 333.32617188 C-148.20002991 333.25946289 -149.27383911 333.19275391 -150.38018799 333.12402344 C-151.55023376 333.0727832 -152.72027954 333.02154297 -153.92578125 332.96875 C-155.73704498 332.88898926 -155.73704498 332.88898926 -157.5848999 332.80761719 C-161.4941663 332.66596664 -165.40135591 332.57246458 -169.3125 332.5 C-170.62322479 332.47365479 -171.93394958 332.44730957 -173.28439331 332.42016602 C-192.46738505 331.80742377 -192.46738505 331.80742377 -209.05583191 340.07946777 C-213.49411637 344.45548838 -217.08489355 349.50783095 -220 355 C-223.63303084 353.30413874 -225.94549046 351.26199512 -228.75 348.375 C-229.54921875 347.55773437 -230.3484375 346.74046875 -231.171875 345.8984375 C-231.77515625 345.27195312 -232.3784375 344.64546875 -233 344 C-231.41921612 340.16581763 -228.98192672 337.73810694 -226.0625 334.83203125 C-225.58176025 334.35174973 -225.10102051 333.8714682 -224.60571289 333.37663269 C-223.59269849 332.3666293 -222.5772648 331.35904727 -221.55957031 330.35375977 C-220.00004002 328.81253955 -218.4487143 327.26341288 -216.8984375 325.71289062 C-208.01329703 316.87200641 -208.01329703 316.87200641 -201.90771484 316.88647461 C-200.31629166 316.88658791 -200.31629166 316.88658791 -198.69271851 316.88670349 C-197.54373077 316.89186478 -196.39474304 316.89702606 -195.2109375 316.90234375 C-193.45059677 316.90446617 -193.45059677 316.90446617 -191.6546936 316.90663147 C-187.89477015 316.91224311 -184.13490555 316.92479762 -180.375 316.9375 C-177.83073002 316.9425135 -175.28645912 316.94707667 -172.7421875 316.95117188 C-166.49477147 316.96221632 -160.24738994 316.97896582 -154 317 C-154.54487061 315.86272461 -155.08974121 314.72544922 -155.65112305 313.55371094 C-156.37567398 312.03068729 -157.10002875 310.5075703 -157.82421875 308.984375 C-158.18221558 308.23849121 -158.5402124 307.49260742 -158.90905762 306.72412109 C-164.29243456 295.3718826 -170 281.69125456 -170 269 C-191.45 269 -212.9 269 -235 269 C-235 263.72 -235 258.44 -235 253 C-213.88 253 -192.76 253 -171 253 C-171 242.44 -171 231.88 -171 221 C-176.27484375 221.03480469 -181.5496875 221.06960938 -186.984375 221.10546875 C-190.34766748 221.12081684 -193.71091612 221.13526006 -197.07421875 221.14648438 C-202.3999948 221.16434296 -207.72561453 221.18535462 -213.05126953 221.22631836 C-217.35013785 221.25917329 -221.64883828 221.27690747 -225.94782257 221.28463173 C-227.57909026 221.29012875 -229.21034988 221.30086155 -230.8415451 221.31719017 C-250.23373154 221.50339895 -266.62799599 216.92166885 -280.91821289 203.34301758 C-294.72509009 189.46520249 -299.28089192 173.29864339 -299.3190918 154.28076172 C-299.22419949 146.12247249 -298.34648266 139.51587089 -295 132 C-294.63777344 131.12730469 -294.27554687 130.25460938 -293.90234375 129.35546875 C-286.9799626 114.07929883 -274.35962165 103.03063924 -258.99609375 96.77734375 C-252.6917347 94.43524498 -247.5133432 92.8639854 -240.75 92.9375 C-239.67234375 92.94652344 -238.5946875 92.95554687 -237.484375 92.96484375 C-236.66453125 92.97644531 -235.8446875 92.98804687 -235 93 C-234.9484375 92.46375 -234.896875 91.9275 -234.84375 91.375 C-232.78791852 77.17107344 -224.93820692 64.3557608 -213.625 55.8125 C-202.97161086 48.36519153 -192.48343952 44.41568629 -179.375 44.5 C-178.42802246 44.50064453 -177.48104492 44.50128906 -176.50537109 44.50195312 C-167.72323507 44.68556211 -160.10472996 46.74881893 -152 50 C-151.50693359 48.52853516 -151.50693359 48.52853516 -151.00390625 47.02734375 C-145.53987805 31.28999877 -137.85845548 18.70287808 -126 7 C-125.26007813 6.26136719 -124.52015625 5.52273437 -123.7578125 4.76171875 C-90.28192634 -26.81352186 -35.88997392 -27.44226251 0 0 Z M-111 16 C-111.87978516 16.66708984 -111.87978516 16.66708984 -112.77734375 17.34765625 C-126.33245721 27.89052227 -134.92866217 45.29182966 -137.54614258 61.97314453 C-138.419398 67.05442462 -139.7392817 69.72746034 -144 73 C-149.72581321 73.32410263 -152.60825199 70.97148283 -156.8203125 67.5625 C-165.67011046 61.21855881 -176.44098515 60.15431231 -187 61 C-197.77775061 63.34790893 -206.70084275 70.02321934 -213 79 C-217.54028036 86.70199375 -219.31016184 94.35448008 -220.4375 103.171875 C-221 106 -221 106 -223 108 C-225.99728653 108.23328634 -228.9362435 108.36749735 -231.9375 108.4375 C-247.82127796 109.07362218 -260.52011582 113.3321766 -271.703125 125.15625 C-281.03376875 136.7084756 -284.07648975 148.42467047 -283 163 C-280.97371967 176.57096993 -274.67113477 187.38100653 -264 196 C-251.40157327 204.25625052 -240.2404455 205.29773913 -225.58984375 205.1953125 C-224.01087118 205.19157592 -222.43189627 205.188732 -220.85292053 205.18673706 C-216.72491905 205.1791513 -212.59706141 205.15954711 -208.46911621 205.1373291 C-204.24570663 205.11676088 -200.0222735 205.10771201 -195.79882812 205.09765625 C-187.53248655 205.07629574 -179.26626124 205.04222194 -171 205 C-170.9906543 204.44538086 -170.98130859 203.89076172 -170.97167969 203.31933594 C-170.91784278 200.79533519 -170.83422746 198.27316186 -170.75 195.75 C-170.73582031 194.87730469 -170.72164063 194.00460938 -170.70703125 193.10546875 C-170.46282225 186.70719298 -170.46282225 186.70719298 -168.45239258 183.63525391 C-165.11425 181.40938243 -161.66747748 179.72737346 -158.01171875 178.0859375 C-157.21320496 177.71872589 -156.41469116 177.35151428 -155.59197998 176.97317505 C-152.96086641 175.76548135 -150.32425967 174.57030973 -147.6875 173.375 C-145.84407792 172.53148239 -144.00106575 171.68706844 -142.15844727 170.84179688 C-138.34122511 169.0919038 -134.52198412 167.3465319 -130.70117188 165.60449219 C-123.58528134 162.3575614 -116.48652715 159.07388093 -109.38818359 155.78881836 C-106.10951127 154.27166874 -102.82860369 152.75953735 -99.54541016 151.25219727 C-92.50618287 148.01899751 -85.48124376 144.7677039 -78.5078125 141.39453125 C-77.40123291 140.86601562 -76.29465332 140.3375 -75.15454102 139.79296875 C-73.1784871 138.84683445 -71.20937334 137.8859737 -69.24975586 136.90625 C-63.92480312 134.37605656 -59.77363651 133.07175463 -54 135 C-49.27625356 136.90946938 -44.70574909 139.08984839 -40.125 141.3125 C-38.77933245 141.95463901 -37.43304877 142.59548832 -36.08618164 143.23510742 C-33.35013823 144.53525824 -30.61640247 145.84007424 -27.88427734 147.1484375 C-22.42668674 149.75658745 -16.93364185 152.28682905 -11.4375 154.8125 C-9.91189453 155.51620728 -9.91189453 155.51620728 -8.35546875 156.23413086 C-2.58968068 158.89300439 3.18061291 161.54187591 8.95378113 164.18467712 C12.27225101 165.70393636 15.59007576 167.22460225 18.90792847 168.74520874 C21.30841813 169.84450894 23.70997022 170.94146274 26.11157227 172.03833008 C50.62772718 183.25545436 50.62772718 183.25545436 52 186 C52.15067214 187.4465242 52.24861036 188.8987934 52.31640625 190.3515625 C52.35830078 191.20234375 52.40019531 192.053125 52.44335938 192.9296875 C52.48267578 193.81914062 52.52199219 194.70859375 52.5625 195.625 C52.60568359 196.5221875 52.64886719 197.419375 52.69335938 198.34375 C52.79956861 200.56234283 52.90161194 202.7810488 53 205 C60.25112283 205.14069835 67.50193881 205.2464616 74.75416374 205.31087303 C78.12406691 205.34183195 81.49230814 205.38702106 84.86181641 205.45263672 C109.13992638 205.9130992 128.43582176 203.47550175 146.75 186.27734375 C158.17044851 174.71810507 165.10938558 158.62728254 165.375 142.375 C164.764229 123.32288526 158.51927392 106.34674398 144.42578125 93.05859375 C132.06423113 82.56819614 117.01735053 77.23361575 100.99609375 76.37890625 C98 76 98 76 95 74 C94.38745117 72.20336914 94.38745117 72.20336914 94.04296875 70.03515625 C93.90334717 69.24012695 93.76372559 68.44509766 93.61987305 67.62597656 C93.47718994 66.7800293 93.33450684 65.93408203 93.1875 65.0625 C91.05813233 53.89142911 87.33309005 44.11092575 78 37 C67.36575482 30.21418919 57.62714637 27.76029029 45 29 C36.46221935 31.3131429 29.2305122 35.7694878 23 42 C17.42378049 42.53963415 17.42378049 42.53963415 15 42 C11.81301793 39.36437795 9.84922282 36.3434743 7.75 32.8125 C-3.77849293 14.45952922 -22.17141807 2.89852166 -43.0859375 -2.1171875 C-67.4320027 -7.05768629 -92.35200999 -0.2342627 -111 16 Z M-64.90039062 184.50952148 C-65.6563855 184.84084579 -66.41238037 185.1721701 -67.19128418 185.51353455 C-68.0047229 185.87902908 -68.81816162 186.24452362 -69.65625 186.62109375 C-70.51319458 186.9992775 -71.37013916 187.37746124 -72.25305176 187.7671051 C-75.00513604 188.98370342 -77.75254686 190.21048443 -80.5 191.4375 C-82.28746796 192.22917627 -84.07522585 193.02019826 -85.86328125 193.81054688 C-90.33360519 195.78923572 -94.79862464 197.77954494 -99.26123047 199.77557373 C-102.09626955 201.04303939 -104.93291568 202.30686786 -107.76953125 203.57080078 C-109.60687782 204.39201327 -111.44412122 205.21345665 -113.28125 206.03515625 C-114.57476379 206.61093666 -114.57476379 206.61093666 -115.89440918 207.198349 C-116.68271118 207.55191971 -117.47101318 207.90549042 -118.28320312 208.26977539 C-118.97901489 208.58072647 -119.67482666 208.89167755 -120.39172363 209.21205139 C-122.00060125 209.8926386 -122.00060125 209.8926386 -123 211 C-123.11406599 213.80774874 -123.16421239 216.58980259 -123.16796875 219.3984375 C-123.17129715 220.2619986 -123.17462555 221.12555969 -123.17805481 222.01528931 C-123.1831371 223.85979683 -123.18546274 225.70431361 -123.18530273 227.54882812 C-123.18744243 230.30095007 -123.20544955 233.05263921 -123.22460938 235.8046875 C-123.40624693 258.42159689 -123.40624693 258.42159689 -118.375 280.3125 C-117.9869519 281.40884766 -117.9869519 281.40884766 -117.59106445 282.52734375 C-113.23504859 294.30410258 -106.867985 304.0636683 -98 313 C-97.13375 313.9075 -96.2675 314.815 -95.375 315.75 C-94.199375 316.86375 -94.199375 316.86375 -93 318 C-92.05125 318.9075 -91.1025 319.815 -90.125 320.75 C-84.87294842 325.19933627 -78.8009161 328.50022714 -72.85400391 331.92041016 C-71.15037918 332.91243393 -69.47031908 333.94463852 -67.79296875 334.98046875 C-66.85066406 335.54378906 -65.90835938 336.10710937 -64.9375 336.6875 C-63.71353516 337.43580078 -63.71353516 337.43580078 -62.46484375 338.19921875 C-58.91602856 339.35216188 -57.39794464 338.52237663 -54 337 C-50.85861924 335.38668052 -47.79913292 333.6558669 -44.75 331.875 C-43.90244141 331.38 -43.05488281 330.885 -42.18164062 330.375 C-36.00665399 326.71082653 -30.30071087 322.8689372 -25 318 C-24.10152344 317.19304687 -23.20304687 316.38609375 -22.27734375 315.5546875 C-4.40217089 298.68760555 4.04261057 276.39975346 5 252 C5.14820585 244.89676419 5.09515875 237.79170332 5.0625 230.6875 C5.05747279 228.77148555 5.05291206 226.85546982 5.04882812 224.93945312 C5.03792424 220.29293647 5.02072757 215.64648279 5 211 C-6.42924746 205.07487853 -18.13717625 199.8855881 -29.9375 194.75 C-31.78985826 193.94043521 -33.64207268 193.13054122 -35.49414062 192.3203125 C-41.69021941 189.61013613 -41.69021941 189.61013613 -47.89450073 186.91882324 C-49.26352459 186.32139205 -50.62703461 185.71110548 -51.9836731 185.08605957 C-56.75021693 182.92139762 -60.07489083 182.36730834 -64.90039062 184.50952148 Z " fill="#9fef00" transform="translate(315,35)"/>
<path d="M0 0 C0.91558182 0.41042038 1.83116364 0.82084076 2.77449036 1.24369812 C5.73331441 2.57278109 8.68507495 3.91677484 11.63671875 5.26171875 C13.66673648 6.17866139 15.69717468 7.09467369 17.72802734 8.00976562 C20.75986527 9.37633431 23.79121689 10.74389867 26.82055664 12.11599731 C32.58926861 14.72749107 38.37304795 17.29676637 44.1875 19.8046875 C45.45210347 20.35302475 46.71667225 20.90144203 47.98120117 21.44995117 C50.2318401 22.42293066 52.48574751 23.38839721 54.7434082 24.3449707 C56.21040161 24.98438599 56.21040161 24.98438599 57.70703125 25.63671875 C58.53605957 25.99121094 59.36508789 26.34570312 60.21923828 26.7109375 C62.74781638 28.19840539 63.79909148 29.44055884 65.32421875 31.94921875 C65.70516968 34.67633057 65.70516968 34.67633057 65.71240234 37.84082031 C65.72185883 39.03016174 65.73131531 40.21950317 65.74105835 41.44488525 C65.73194931 43.37288971 65.73194931 43.37288971 65.72265625 45.33984375 C65.72468069 46.68585365 65.72759521 48.03186248 65.73135376 49.37786865 C65.73577793 52.2057942 65.72935562 55.03343565 65.71533203 57.86132812 C65.69843413 61.43865333 65.70825086 65.01530025 65.72563267 68.59260082 C65.79978586 86.46110997 65.72519693 103.39696442 58.63671875 120.13671875 C58.28859131 120.978396 57.94046387 121.82007324 57.58178711 122.68725586 C52.59630004 134.40152489 45.76263178 144.4166598 37.32421875 153.94921875 C36.71191406 154.6453125 36.09960938 155.34140625 35.46875 156.05859375 C25.81484412 166.35060428 13.48210764 173.2006245 1.32421875 180.07421875 C0.43009781 180.5868779 0.43009781 180.5868779 -0.48208618 181.1098938 C-2.20539468 182.09378228 -3.94045247 183.05700189 -5.67578125 184.01953125 C-6.68640625 184.58430176 -7.69703125 185.14907227 -8.73828125 185.73095703 C-12.08140968 187.11744397 -14.08976474 187.39124661 -17.67578125 186.94921875 C-20.66088867 185.69921875 -20.66088867 185.69921875 -23.78125 183.94921875 C-24.93044922 183.30855469 -26.07964844 182.66789063 -27.26367188 182.0078125 C-27.85639893 181.66862793 -28.44912598 181.32944336 -29.05981445 180.97998047 C-30.83329356 179.96635805 -32.61730364 178.97393456 -34.40429688 177.984375 C-59.68307034 163.83585856 -78.13285403 144.97186715 -88.67578125 117.94921875 C-88.98128906 117.25828125 -89.28679687 116.56734375 -89.6015625 115.85546875 C-96.20167374 100.42136247 -95.20857769 82.95605777 -95.17675781 66.52758789 C-95.170794 62.94528798 -95.20180424 59.36431194 -95.24187469 55.78226948 C-95.26772479 53.00006392 -95.27063327 50.21818212 -95.26698303 47.43587303 C-95.26948143 45.47656685 -95.29412297 43.51732888 -95.31921387 41.55818176 C-95.25110258 32.85331569 -95.25110258 32.85331569 -92.72509766 28.88378906 C-88.7201202 26.34292106 -84.6490227 24.37240612 -80.29296875 22.5078125 C-79.37336868 22.10282532 -78.45376862 21.69783813 -77.50630188 21.28057861 C-74.52601134 19.97112179 -71.53883448 18.67835197 -68.55078125 17.38671875 C-66.50260624 16.49352214 -64.45483702 15.59939443 -62.4074707 14.7043457 C-59.35061455 13.36807915 -56.29343317 12.03264304 -53.23414612 10.70195007 C-47.44798266 8.18130536 -41.6952099 5.60366376 -35.9765625 2.93359375 C-34.73660801 2.35985422 -33.49654181 1.78635605 -32.25634766 1.21313477 C-30.06308652 0.19414734 -27.87602353 -0.83833718 -25.69677734 -1.88696289 C-24.73465332 -2.32903076 -23.7725293 -2.77109863 -22.78125 -3.2265625 C-21.57698364 -3.7975769 -21.57698364 -3.7975769 -20.34838867 -4.38012695 C-12.99659226 -6.22495976 -6.55558524 -3.01433343 0 0 Z M-20.57617188 14.45874023 C-21.33216675 14.79006454 -22.08816162 15.12138885 -22.86706543 15.4627533 C-23.68050415 15.82824783 -24.49394287 16.19374237 -25.33203125 16.5703125 C-26.18897583 16.94849625 -27.04592041 17.32667999 -27.92883301 17.71632385 C-30.68091729 18.93292217 -33.42832811 20.15970318 -36.17578125 21.38671875 C-37.96324921 22.17839502 -39.7510071 22.96941701 -41.5390625 23.75976562 C-46.00938644 25.73845447 -50.47440589 27.72876369 -54.93701172 29.72479248 C-57.7720508 30.99225814 -60.60869693 32.25608661 -63.4453125 33.52001953 C-65.28265907 34.34123202 -67.11990247 35.1626754 -68.95703125 35.984375 C-70.25054504 36.56015541 -70.25054504 36.56015541 -71.57019043 37.14756775 C-72.35849243 37.50113846 -73.14679443 37.85470917 -73.95898438 38.21899414 C-74.65479614 38.52994522 -75.35060791 38.8408963 -76.06750488 39.16127014 C-77.6763825 39.84185735 -77.6763825 39.84185735 -78.67578125 40.94921875 C-78.78984724 43.75696749 -78.83999364 46.53902134 -78.84375 49.34765625 C-78.8470784 50.21121735 -78.8504068 51.07477844 -78.85383606 51.96450806 C-78.85891835 53.80901558 -78.86124399 55.65353236 -78.86108398 57.49804688 C-78.86322368 60.25016882 -78.8812308 63.00185796 -78.90039062 65.75390625 C-79.08202818 88.37081564 -79.08202818 88.37081564 -74.05078125 110.26171875 C-73.66273315 111.35806641 -73.66273315 111.35806641 -73.2668457 112.4765625 C-68.91082984 124.25332133 -62.54376625 134.01288705 -53.67578125 142.94921875 C-52.80953125 143.85671875 -51.94328125 144.76421875 -51.05078125 145.69921875 C-49.87515625 146.81296875 -49.87515625 146.81296875 -48.67578125 147.94921875 C-47.72703125 148.85671875 -46.77828125 149.76421875 -45.80078125 150.69921875 C-40.54872967 155.14855502 -34.47669735 158.44944589 -28.52978516 161.86962891 C-26.82616043 162.86165268 -25.14610033 163.89385727 -23.46875 164.9296875 C-22.52644531 165.49300781 -21.58414063 166.05632812 -20.61328125 166.63671875 C-19.38931641 167.38501953 -19.38931641 167.38501953 -18.140625 168.1484375 C-14.59180981 169.30138063 -13.07372589 168.47159538 -9.67578125 166.94921875 C-6.53440049 165.33589927 -3.47491417 163.60508565 -0.42578125 161.82421875 C0.42177734 161.32921875 1.26933594 160.83421875 2.14257812 160.32421875 C8.31756476 156.66004528 14.02350788 152.81815595 19.32421875 147.94921875 C20.22269531 147.14226562 21.12117188 146.3353125 22.046875 145.50390625 C39.92204786 128.6368243 48.36682932 106.34897221 49.32421875 81.94921875 C49.4724246 74.84598294 49.4193775 67.74092207 49.38671875 60.63671875 C49.38169154 58.7207043 49.37713081 56.80468857 49.37304688 54.88867188 C49.36214299 50.24215522 49.34494632 45.59570154 49.32421875 40.94921875 C37.89497129 35.02409728 26.1870425 29.83480685 14.38671875 24.69921875 C12.53436049 23.88965396 10.68214607 23.07975997 8.83007812 22.26953125 C2.63399934 19.55935488 2.63399934 19.55935488 -3.57028198 16.86804199 C-4.93930584 16.2706108 -6.30281586 15.66032423 -7.65945435 15.03527832 C-12.42599818 12.87061637 -15.75067208 12.31652709 -20.57617188 14.45874023 Z " fill="#9fef00" transform="translate(270.67578125,205.05078125)"/>
<path d="M0 0 C0.70097305 0.33522171 1.40194611 0.67044342 2.12416077 1.01582336 C3.63473179 1.7388932 5.14373512 2.46524552 6.65130615 3.19454956 C10.68947163 5.14722232 14.73985238 7.07426908 18.7890625 9.00390625 C20.02967438 9.59616753 20.02967438 9.59616753 21.29534912 10.20039368 C29.51062077 14.11481213 37.78286433 17.89844487 46.07421875 21.6484375 C46.75416901 21.95640259 47.43411926 22.26436768 48.13467407 22.58166504 C52.65441515 24.62869262 57.17640574 26.67070799 61.69921875 28.7109375 C65.05350379 30.22465903 68.40753107 31.7389249 71.76025391 33.25610352 C73.66257629 34.11687358 75.56583777 34.97557247 77.47021484 35.83178711 C78.28828613 36.20182861 79.10635742 36.57187012 79.94921875 36.953125 C80.655625 37.2713623 81.36203125 37.58959961 82.08984375 37.91748047 C83.69921875 38.7109375 83.69921875 38.7109375 84.69921875 39.7109375 C84.80905142 41.63482314 84.84833772 43.56276534 84.86035156 45.48974609 C84.86995911 46.7296933 84.87956665 47.9696405 84.88946533 49.24716187 C84.89432142 50.6178977 84.89859824 51.98863568 84.90234375 53.359375 C84.90658482 54.39810194 84.90658482 54.39810194 84.91091156 55.45781326 C84.92595418 59.14310338 84.93514349 62.82835406 84.93945312 66.51367188 C84.94379408 69.52974847 84.95750456 72.54553192 84.98046875 75.56152344 C85.2836906 116.18837785 77.91836241 150.69390604 48.81640625 180.68359375 C33.22652567 196.15144959 12.22813657 206.22749869 -7.30078125 215.7109375 C-8.11224609 216.14374023 -8.92371094 216.57654297 -9.75976562 217.02246094 C-13.31440897 217.98557529 -14.70177345 216.96991756 -17.87890625 215.1953125 C-18.94947266 214.60830566 -20.02003906 214.02129883 -21.12304688 213.41650391 C-22.25419922 212.77116699 -23.38535156 212.12583008 -24.55078125 211.4609375 C-25.72390401 210.8065139 -26.89773752 210.15336283 -28.07226562 209.50146484 C-31.4948482 207.59409549 -34.89777275 205.65301697 -38.30078125 203.7109375 C-40.01409127 202.74958705 -41.72760499 201.78859944 -43.44140625 200.828125 C-51.27702507 196.38414418 -58.52421344 191.6915997 -65.30078125 185.7109375 C-66.2134375 184.92976562 -67.12609375 184.14859375 -68.06640625 183.34375 C-90.61364797 163.56871013 -104.7939923 134.53265025 -107.30078125 104.7109375 C-107.74016867 94.23926262 -107.60219474 83.75262338 -107.5067749 73.27478027 C-107.47559827 69.47946271 -107.46228193 65.68408168 -107.44726562 61.88867188 C-107.41548326 54.49592514 -107.36456289 47.103485 -107.30078125 39.7109375 C-97.56840675 34.76514804 -87.77824318 30.02042663 -77.81726074 25.55319214 C-74.26121251 23.95766333 -70.71050753 22.35034538 -67.16015625 20.7421875 C-66.43201721 20.41242416 -65.70387817 20.08266083 -64.95367432 19.74290466 C-55.0112462 15.23029247 -45.13482816 10.57608311 -35.25878906 5.92042542 C-33.44702976 5.06812749 -31.63271816 4.22126182 -29.81835938 3.37451172 C-27.42970938 2.2448434 -25.06444457 1.0973124 -22.70507812 -0.08935547 C-20.99674805 -0.92877686 -20.99674805 -0.92877686 -19.25390625 -1.78515625 C-18.25004883 -2.29103271 -17.24619141 -2.79690918 -16.21191406 -3.31811523 C-10.21843728 -5.31711365 -5.3862292 -2.63703622 0 0 Z M-22.63671875 14.0234375 C-23.42195419 14.38400238 -24.20718964 14.74456726 -25.01622009 15.11605835 C-27.57798656 16.29676424 -30.12654417 17.50344958 -32.67578125 18.7109375 C-35.3505619 19.95395556 -38.02811423 21.19087211 -40.70570374 22.42782593 C-42.52836412 23.27069367 -44.34992289 24.11594754 -46.1703949 24.96353149 C-52.20648839 27.76903642 -58.27751016 30.47620937 -64.390625 33.109375 C-65.1783429 33.44986877 -65.96606079 33.79036255 -66.77764893 34.14117432 C-69.79087935 35.44256244 -72.80437558 36.74287493 -75.82611084 38.02441406 C-77.88069269 38.89699162 -79.92897934 39.78302583 -81.9765625 40.671875 C-83.13067627 41.16478027 -84.28479004 41.65768555 -85.47387695 42.16552734 C-88.48615464 43.8122773 -89.5713382 44.79558785 -91.30078125 47.7109375 C-91.75364971 50.50146332 -91.75364971 50.50146332 -91.68896484 53.60253906 C-91.69842133 54.79188049 -91.70787781 55.98122192 -91.71762085 57.206604 C-91.71154816 58.49194031 -91.70547546 59.77727661 -91.69921875 61.1015625 C-91.70124319 62.4475724 -91.70415771 63.79358123 -91.70791626 65.1395874 C-91.71234043 67.96751295 -91.70591812 70.7951544 -91.69189453 73.62304688 C-91.67499663 77.20037208 -91.68481336 80.777019 -91.70219517 84.35431957 C-91.77634836 102.22282872 -91.70175943 119.15868317 -84.61328125 135.8984375 C-84.09109009 137.16095337 -84.09109009 137.16095337 -83.55834961 138.44897461 C-78.57286254 150.16324364 -71.73919428 160.17837855 -63.30078125 169.7109375 C-62.68847656 170.40703125 -62.07617188 171.103125 -61.4453125 171.8203125 C-49.82916039 184.20426997 -34.46771829 191.69385974 -19.62231445 199.44921875 C-17.30078125 200.7109375 -17.30078125 200.7109375 -14.30078125 202.7109375 C-9.37065157 203.26001659 -6.46961431 202.10810481 -2.1953125 199.7109375 C-1.04611328 199.07027344 0.10308594 198.42960938 1.28710938 197.76953125 C1.87983643 197.43034668 2.47256348 197.09116211 3.08325195 196.74169922 C4.85673106 195.7280768 6.64074114 194.73565331 8.42773438 193.74609375 C33.70650784 179.59757731 52.15629153 160.7335859 62.69921875 133.7109375 C63.00472656 133.02 63.31023437 132.3290625 63.625 131.6171875 C70.22511124 116.18308122 69.23201519 98.71777652 69.20019531 82.28930664 C69.1942315 78.70700673 69.22524174 75.12603069 69.26531219 71.54398823 C69.29116229 68.76178267 69.29407077 65.97990087 69.29042053 63.19759178 C69.29291893 61.2382856 69.31756047 59.27904763 69.34265137 57.31990051 C69.37266235 50.62527202 69.37266235 50.62527202 66.75292969 44.64770508 C62.72480961 42.09293401 58.62616528 40.11147685 54.24609375 38.234375 C53.32102524 37.82674423 52.39595673 37.41911346 51.44285583 36.99913025 C48.44980524 35.68337345 45.44986587 34.38426483 42.44921875 33.0859375 C40.39582116 32.18870261 38.34284311 31.29050698 36.2902832 30.39135742 C32.25706389 28.62580534 28.22136168 26.86610798 24.18408203 25.10986328 C19.58749502 23.10585291 15.01038714 21.06291092 10.4453125 18.98828125 C9.30674805 18.47410645 8.16818359 17.95993164 6.99511719 17.43017578 C4.99638388 16.52562808 3.00066058 15.6143835 1.00878906 14.69482422 C0.13706055 14.30439941 -0.73466797 13.91397461 -1.6328125 13.51171875 C-2.35186768 13.18341064 -3.07092285 12.85510254 -3.81176758 12.5168457 C-11.31702413 10.08674743 -15.71752316 10.67450901 -22.63671875 14.0234375 Z " fill="#0b121f" transform="translate(267.30078125,189.2890625)"/>
<path d="M0 0 C5.82485779 3.51996782 10.54466582 8.98962934 12.5625 15.5 C13.36748575 23.33457059 13.68829143 31.12123733 8.5625 37.5 C4.79441918 41.45339627 1.92912621 44.15834345 -3.4375 45.5 C-3.4375 56.39 -3.4375 67.28 -3.4375 78.5 C-8.7175 78.5 -13.9975 78.5 -19.4375 78.5 C-19.4375 67.61 -19.4375 56.72 -19.4375 45.5 C-21.0875 44.84 -22.7375 44.18 -24.4375 43.5 C-29.75742715 40.02711617 -33.77725359 35.70873213 -35.4375 29.5 C-36.22691541 22.53361246 -36.570682 15.41990082 -32.83984375 9.24609375 C-24.792077 -0.77438463 -12.46006225 -5.52151778 0 0 Z " fill="#9fef00" transform="translate(267.4375,257.5)"/>
<path d="M0 0 C5.82485779 3.51996782 10.54466582 8.98962934 12.5625 15.5 C13.36764105 23.33608208 13.68710392 31.11922577 8.5625 37.5 C3.75801361 42.54521222 -0.59927055 46.10562995 -7.70703125 46.8359375 C-16.22326573 46.92983204 -22.11345494 46.6177288 -28.40234375 40.62890625 C-34.7841668 33.72505269 -35.91792252 28.29832071 -35.7421875 18.9453125 C-35.04689797 11.08319245 -31.38995981 6.95041296 -25.53515625 1.9453125 C-18.47077988 -2.92213491 -7.84396301 -3.47595223 0 0 Z " fill="#9fef00" transform="translate(347.4375,449.5)"/>
<path d="M0 0 C5.82485779 3.51996782 10.54466582 8.98962934 12.5625 15.5 C13.36764105 23.33608208 13.68710392 31.11922577 8.5625 37.5 C3.75801361 42.54521222 -0.59927055 46.10562995 -7.70703125 46.8359375 C-16.22326573 46.92983204 -22.11345494 46.6177288 -28.40234375 40.62890625 C-34.7841668 33.72505269 -35.91792252 28.29832071 -35.7421875 18.9453125 C-35.04689797 11.08319245 -31.38995981 6.95041296 -25.53515625 1.9453125 C-18.47077988 -2.92213491 -7.84396301 -3.47595223 0 0 Z " fill="#9fef00" transform="translate(187.4375,449.5)"/>
<path d="M0 0 C5.82485779 3.51996782 10.54466582 8.98962934 12.5625 15.5 C13.36764105 23.33608208 13.68710392 31.11922577 8.5625 37.5 C3.75801361 42.54521222 -0.59927055 46.10562995 -7.70703125 46.8359375 C-16.22326573 46.92983204 -22.11345494 46.6177288 -28.40234375 40.62890625 C-34.7841668 33.72505269 -35.91792252 28.29832071 -35.7421875 18.9453125 C-35.04689797 11.08319245 -31.38995981 6.95041296 -25.53515625 1.9453125 C-18.47077988 -2.92213491 -7.84396301 -3.47595223 0 0 Z " fill="#9fef00" transform="translate(459.4375,385.5)"/>
<path d="M0 0 C5.82485779 3.51996782 10.54466582 8.98962934 12.5625 15.5 C13.36764105 23.33608208 13.68710392 31.11922577 8.5625 37.5 C3.75801361 42.54521222 -0.59927055 46.10562995 -7.70703125 46.8359375 C-16.22326573 46.92983204 -22.11345494 46.6177288 -28.40234375 40.62890625 C-34.7841668 33.72505269 -35.91792252 28.29832071 -35.7421875 18.9453125 C-35.04689797 11.08319245 -31.38995981 6.95041296 -25.53515625 1.9453125 C-18.47077988 -2.92213491 -7.84396301 -3.47595223 0 0 Z " fill="#9fef00" transform="translate(75.4375,385.5)"/>
<path d="M0 0 C5.82485779 3.51996782 10.54466582 8.98962934 12.5625 15.5 C13.36764105 23.33608208 13.68710392 31.11922577 8.5625 37.5 C3.75801361 42.54521222 -0.59927055 46.10562995 -7.70703125 46.8359375 C-16.22326573 46.92983204 -22.11345494 46.6177288 -28.40234375 40.62890625 C-34.7841668 33.72505269 -35.91792252 28.29832071 -35.7421875 18.9453125 C-35.04689797 11.08319245 -31.38995981 6.95041296 -25.53515625 1.9453125 C-18.47077988 -2.92213491 -7.84396301 -3.47595223 0 0 Z " fill="#9fef00" transform="translate(483.4375,273.5)"/>
<path d="M0 0 C5.82485779 3.51996782 10.54466582 8.98962934 12.5625 15.5 C13.36764105 23.33608208 13.68710392 31.11922577 8.5625 37.5 C3.75801361 42.54521222 -0.59927055 46.10562995 -7.70703125 46.8359375 C-16.22326573 46.92983204 -22.11345494 46.6177288 -28.40234375 40.62890625 C-34.7841668 33.72505269 -35.91792252 28.29832071 -35.7421875 18.9453125 C-35.04689797 11.08319245 -31.38995981 6.95041296 -25.53515625 1.9453125 C-18.47077988 -2.92213491 -7.84396301 -3.47595223 0 0 Z " fill="#9fef00" transform="translate(51.4375,273.5)"/>
<path d="M0 0 C5.28 0 10.56 0 16 0 C16 13.57227042 11.12406857 24.66625956 2 34.6875 C-7.25960703 43.53905655 -19.33555786 48 -32 48 C-32 42.72 -32 37.44 -32 32 C-30.22625 31.62875 -28.4525 31.2575 -26.625 30.875 C-17.31373207 28.50326194 -10.21344512 24.84522195 -5.1796875 16.44140625 C-3.24170743 12.43068591 -2.03715488 8.32023508 -1 4 C-0.67 2.68 -0.34 1.36 0 0 Z " fill="#9fef00" transform="translate(448,176)"/>
<path d="M0 0 C5.28 0 10.56 0 16 0 C16 5.28 16 10.56 16 16 C10.72 16 5.44 16 0 16 C0 10.72 0 5.44 0 0 Z " fill="#9fef00" transform="translate(376,96)"/>
<path d="M0 0 C5.28 0 10.56 0 16 0 C16 5.28 16 10.56 16 16 C10.72 16 5.44 16 0 16 C0 10.72 0 5.44 0 0 Z " fill="#9fef00" transform="translate(344,96)"/>
<path d="M0 0 C2.66589042 0.54323805 3.75768995 0.96351964 5.875 2.75 C7.21538506 5.84964046 7.42167869 7.71409302 6.875 11.0625 C4.41905875 14.38524404 2.9493356 15.83868008 -1.125 16.6875 C-5.1993356 15.83868008 -6.66905875 14.38524404 -9.125 11.0625 C-9.75 8.0625 -9.75 8.0625 -9.125 5.0625 C-6.50620524 1.2161452 -4.62486834 -0.35838463 0 0 Z " fill="#0b121f" transform="translate(257.125,271.9375)"/>
<path d="M0 0 C1.80859375 0.6328125 1.80859375 0.6328125 3.87109375 2.1953125 C5.27134563 5.83596738 4.95545804 8.93299689 3.80859375 12.6328125 C1.55786169 15.30034679 0.26413836 15.57586942 -3.19140625 16.0078125 C-6.64695086 15.57586942 -7.94067419 15.30034679 -10.19140625 12.6328125 C-11.16195756 9.89869843 -11.50554648 7.52178072 -11.19140625 4.6328125 C-8.11917185 -0.22329993 -5.38026882 -1.11877045 0 0 Z " fill="#0b121f" transform="translate(43.19140625,288.3671875)"/>
<path d="M0 0 C2.0625 1.5625 2.0625 1.5625 3 4 C3.17821261 6.85140177 2.92914963 9.292848 2 12 C-0.93837168 14.85194898 -2.53597436 15 -6.625 15 C-10 14 -10 14 -12 11.875 C-13.30782688 8.11499772 -13.06090617 5.81926223 -12 2 C-8.81688665 -2.07438508 -4.54417813 -1.38635943 0 0 Z " fill="#0b121f" transform="translate(341,465)"/>
<path d="M0 0 C2.0625 1.5625 2.0625 1.5625 3 4 C3.17821261 6.85140177 2.92914963 9.292848 2 12 C-0.93837168 14.85194898 -2.53597436 15 -6.625 15 C-10 14 -10 14 -12 11.875 C-13.30782688 8.11499772 -13.06090617 5.81926223 -12 2 C-8.81688665 -2.07438508 -4.54417813 -1.38635943 0 0 Z " fill="#0b121f" transform="translate(181,465)"/>
<path d="M0 0 C2.0625 1.5625 2.0625 1.5625 3 4 C3.17821261 6.85140177 2.92914963 9.292848 2 12 C-0.93837168 14.85194898 -2.53597436 15 -6.625 15 C-10 14 -10 14 -12 11.875 C-13.30782688 8.11499772 -13.06090617 5.81926223 -12 2 C-8.81688665 -2.07438508 -4.54417813 -1.38635943 0 0 Z " fill="#0b121f" transform="translate(453,401)"/>
<path d="M0 0 C2.0625 1.5625 2.0625 1.5625 3 4 C3.17821261 6.85140177 2.92914963 9.292848 2 12 C-0.93837168 14.85194898 -2.53597436 15 -6.625 15 C-10 14 -10 14 -12 11.875 C-13.30782688 8.11499772 -13.06090617 5.81926223 -12 2 C-8.81688665 -2.07438508 -4.54417813 -1.38635943 0 0 Z " fill="#0b121f" transform="translate(69,401)"/>
<path d="M0 0 C2.0625 1.5625 2.0625 1.5625 3 4 C3.17821261 6.85140177 2.92914963 9.292848 2 12 C-0.93837168 14.85194898 -2.53597436 15 -6.625 15 C-10 14 -10 14 -12 11.875 C-13.30782688 8.11499772 -13.06090617 5.81926223 -12 2 C-8.81688665 -2.07438508 -4.54417813 -1.38635943 0 0 Z " fill="#0b121f" transform="translate(477,289)"/>
</svg>
